<svg xmlns="http://www.w3.org/2000/svg" id="Layer_1" data-name="Layer 1" viewBox="0 0 131.07 31.95"><defs><style>.cls-1{<fill: id="ffffff"></fill:>;}.cls-2{<fill: id="ffffff"></fill:>;}</style></defs><title>bb-primary-logo</title><path class="cls-1" d="M3.77,1.46l-1.53.88,3.57,6,1.53-.88Z" transform="translate(0 0)"/><path class="cls-2" d="M19.12,6.85A13.21,13.21,0,0,0,9.71,6L6.27,0,4.74.88,8.89,8.07l.69-.23a11.46,11.46,0,1,1-6.85,6.27l.15-.35-1.62-.71-.15.35a13.23,13.23,0,1,0,18-6.55ZM39.49,22.44a3.14,3.14,0,0,0-.93-.73,2.91,2.91,0,0,0-1.15-.32v0a3.86,3.86,0,0,0,1.69-1.09,2.76,2.76,0,0,0,.65-1.91,3.38,3.38,0,0,0-.32-1.5,2.86,2.86,0,0,0-.86-1.06,3.72,3.72,0,0,0-1.3-.62A5.73,5.73,0,0,0,35.63,15H30.91V28.55h4.66a6.84,6.84,0,0,0,1.86-.25A4.75,4.75,0,0,0,39,27.57a3.44,3.44,0,0,0,1-1.18,3.64,3.64,0,0,0-.49-3.95Zm-6.74-5.86h2.9a1.91,1.91,0,0,1,2.13,1.68,1.61,1.61,0,0,1,0,.31,1.8,1.8,0,0,1-.2.94,1.73,1.73,0,0,1-.54.63,2.37,2.37,0,0,1-.81.36,4.59,4.59,0,0,1-1,.1H32.75v-4Zm5.33,9.22a2.28,2.28,0,0,1-.75.7,2.65,2.65,0,0,1-.95.35,5.84,5.84,0,0,1-.93.08h-2.7V22.22h2.73a3.39,3.39,0,0,1,2.13.6,2.13,2.13,0,0,1,.78,1.81,2,2,0,0,1-.31,1.17Zm11.5-5.18a4.84,4.84,0,0,0-7.89,1.52A4.59,4.59,0,0,0,41.31,24a4.75,4.75,0,0,0,1.4,3.38,5,5,0,0,0,5.33,1,4.78,4.78,0,0,0,2.57-6.26,5.11,5.11,0,0,0-1-1.52Zm-.65,4.66a2.84,2.84,0,0,1-.6,1,2.69,2.69,0,0,1-.94.65,3.35,3.35,0,0,1-2.49,0,2.69,2.69,0,0,1-.94-.65,2.82,2.82,0,0,1-.59-1,3.88,3.88,0,0,1,0-2.56,2.82,2.82,0,0,1,.59-1,2.69,2.69,0,0,1,.94-.65,3.35,3.35,0,0,1,2.49,0,2.69,2.69,0,0,1,.94.65,2.84,2.84,0,0,1,.6,1A4,4,0,0,1,48.93,25.28Zm16.35-4.91a2.85,2.85,0,0,0-1.06-.92,3.92,3.92,0,0,0-1.72-.34,3.44,3.44,0,0,0-1.63.42,2.89,2.89,0,0,0-1.25,1.27,2.91,2.91,0,0,0-2.84-1.69,3.29,3.29,0,0,0-1.12.18,4,4,0,0,0-.88.44,3.26,3.26,0,0,0-.62.55,1.5,1.5,0,0,0-.3.48h0V19.34H52.21v9.09h1.73V23.72a4,4,0,0,1,.19-1.34,2.68,2.68,0,0,1,.52-.93,2.12,2.12,0,0,1,.75-.54,2.34,2.34,0,0,1,.9-.19,2,2,0,0,1,1,.22,1.51,1.51,0,0,1,.58.62,2.94,2.94,0,0,1,.27.93,9.39,9.39,0,0,1,.06,1.19v4.75h1.73v-5a3.39,3.39,0,0,1,.54-2,2.46,2.46,0,0,1,2.8-.55,1.52,1.52,0,0,1,.59.59,2.14,2.14,0,0,1,.28.84,6.73,6.73,0,0,1,.07,1v5.07H66v-5.3a7.46,7.46,0,0,0-.15-1.49,3.24,3.24,0,0,0-.53-1.29Zm10.6-.12a4.31,4.31,0,0,0-1.45-1,4.84,4.84,0,0,0-1.91-.36,4.3,4.3,0,0,0-1.84.41,3.15,3.15,0,0,0-1.33,1.12h0V13.7H67.59V28.45h1.72V26.9h0A3.42,3.42,0,0,0,70.72,28a4.3,4.3,0,0,0,1.8.4,4.85,4.85,0,0,0,1.91-.37,4.08,4.08,0,0,0,1.45-1,4.42,4.42,0,0,0,.93-1.52,5,5,0,0,0,.33-1.88,5.34,5.34,0,0,0-.33-1.89,4.38,4.38,0,0,0-.93-1.51Zm-.8,4.68a2.82,2.82,0,0,1-.59,1,2.65,2.65,0,0,1-.94.65,3.38,3.38,0,0,1-2.5,0,2.61,2.61,0,0,1-.93-.65,2.84,2.84,0,0,1-.6-1,4,4,0,0,1,0-2.55,2.84,2.84,0,0,1,.6-1,2.74,2.74,0,0,1,.93-.65,3.38,3.38,0,0,1,2.5,0,2.78,2.78,0,0,1,.94.65,2.82,2.82,0,0,1,.59,1A3.85,3.85,0,0,1,75.08,24.93Zm12.75-2.49a3.14,3.14,0,0,0-.93-.73,3.09,3.09,0,0,0-1.15-.32v0a3.78,3.78,0,0,0,1.68-1.09,2.77,2.77,0,0,0,.66-1.91,3.38,3.38,0,0,0-.32-1.5,2.86,2.86,0,0,0-.86-1.06,3.9,3.9,0,0,0-1.3-.62A5.73,5.73,0,0,0,84,15H79.25V28.55h4.66a6.84,6.84,0,0,0,1.86-.25,4.75,4.75,0,0,0,1.52-.73,3.31,3.31,0,0,0,1-1.18,3.39,3.39,0,0,0,.38-1.62,3.5,3.5,0,0,0-.86-2.33Zm-6.74-5.86H84a1.91,1.91,0,0,1,2.13,1.68,1.61,1.61,0,0,1,0,.31,1.9,1.9,0,0,1-.2.94,1.73,1.73,0,0,1-.54.63,2.26,2.26,0,0,1-.81.36,4,4,0,0,1-1,.1H81.09v-4Zm5.33,9.22a2.28,2.28,0,0,1-.75.7,2.65,2.65,0,0,1-1,.35,7.32,7.32,0,0,1-.93.09h-2.7V22.22h2.72a3.42,3.42,0,0,1,2.13.6,2.11,2.11,0,0,1,.79,1.81,2,2,0,0,1-.31,1.17Zm11.5-5.18A4.84,4.84,0,0,0,90,22.14,4.59,4.59,0,0,0,89.65,24a4.71,4.71,0,0,0,1.4,3.38,5,5,0,0,0,5.33,1A4.73,4.73,0,0,0,99.32,24a4.59,4.59,0,0,0-.38-1.86,4.9,4.9,0,0,0-1-1.52Zm-.65,4.66a2.84,2.84,0,0,1-.6,1,2.69,2.69,0,0,1-.94.65,3.35,3.35,0,0,1-2.49,0,2.69,2.69,0,0,1-.94-.65,2.84,2.84,0,0,1-.6-1,4,4,0,0,1,0-2.55,2.84,2.84,0,0,1,.6-1,2.71,2.71,0,0,1,.94-.66,3.45,3.45,0,0,1,2.49,0,2.71,2.71,0,0,1,.94.66,2.84,2.84,0,0,1,.6,1A4,4,0,0,1,97.27,25.28Zm16.34-4.91a2.72,2.72,0,0,0-1-.91,3.81,3.81,0,0,0-1.73-.35,3.62,3.62,0,0,0-1.63.42A2.93,2.93,0,0,0,108,20.8a3.18,3.18,0,0,0-1.14-1.27,3.23,3.23,0,0,0-1.7-.42,3.55,3.55,0,0,0-1.12.18,4.1,4.1,0,0,0-.89.44,3.53,3.53,0,0,0-.61.55,1.5,1.5,0,0,0-.3.48h0V19.34h-1.61v9.09h1.73V23.72a4.06,4.06,0,0,1,.19-1.34,2.68,2.68,0,0,1,.52-.93,2,2,0,0,1,.75-.54,2.54,2.54,0,0,1,.9-.19,1.94,1.94,0,0,1,1,.23,1.42,1.42,0,0,1,.58.61,3,3,0,0,1,.27.93,9.39,9.39,0,0,1,.06,1.19v4.75h1.73v-5a3.39,3.39,0,0,1,.54-2,2.46,2.46,0,0,1,2.8-.55,1.59,1.59,0,0,1,.59.59,2.32,2.32,0,0,1,.28.84,6.82,6.82,0,0,1,.07,1v5.07h1.73v-5.3a8.15,8.15,0,0,0-.14-1.48,3.39,3.39,0,0,0-.54-1.3Zm10.61-.12a4.46,4.46,0,0,0-1.45-1,4.84,4.84,0,0,0-1.91-.36,4.38,4.38,0,0,0-1.85.41,3.26,3.26,0,0,0-1.32,1.12h0V13.7h-1.72V28.45h1.72V26.9h0A3.42,3.42,0,0,0,119.06,28a4.3,4.3,0,0,0,1.8.4,4.85,4.85,0,0,0,1.91-.37,4.08,4.08,0,0,0,1.45-1,4.42,4.42,0,0,0,.93-1.52,5,5,0,0,0,.33-1.88,5.34,5.34,0,0,0-.33-1.89,4.38,4.38,0,0,0-.93-1.51Zm-.8,4.68a2.82,2.82,0,0,1-.59,1,2.91,2.91,0,0,1-.94.66,3.38,3.38,0,0,1-2.5,0,2.91,2.91,0,0,1-.94-.66,3,3,0,0,1-.59-1,4,4,0,0,1,0-2.55,3,3,0,0,1,.59-1,2.88,2.88,0,0,1,.94-.65,3.38,3.38,0,0,1,2.5,0,2.88,2.88,0,0,1,.94.65,2.82,2.82,0,0,1,.59,1A4,4,0,0,1,123.42,24.93Zm2.3-9.32h.76v2.12h.58V15.61h.75V15.1h-2.09v.51Zm4.46-.51-.61,1.72h0L129,15.1h-.87v2.63h.58v-2h0l.66,2h.45l.69-2h0v2h.58V15.1Z" transform="translate(0 0)"/></svg>