<svg width="188" height="117" viewBox="0 0 188 117" fill="none" xmlns="http://www.w3.org/2000/svg">
<path d="M74.696 98.152C73.784 98.304 72.7706 98.38 71.656 98.38H56.684V117H52.428V63.8H71.124C75.9373 63.8 79.5093 65.2693 81.84 68.208C84.2213 71.1467 85.412 75.0987 85.412 80.064C85.412 83.864 84.9813 87.2333 84.12 90.172C83.3093 93.1107 81.5106 95.34 78.724 96.86L85.488 117H81.156L74.696 98.152ZM71.732 94.2C74.5693 94.2 76.672 93.44 78.04 91.92C79.4586 90.4 80.32 88.6773 80.624 86.752C80.9786 84.8267 81.156 82.6733 81.156 80.292C81.156 76.1373 80.2946 73.0213 78.572 70.944C76.8493 68.8667 74.468 67.828 71.428 67.828H56.684V94.2H71.732Z" fill="#2c2e2f"/>
<path d="M123.75 89.792H99.5824V117H95.3264V63.8H99.5824V85.612H123.75V63.8H128.006V117H123.75V89.792Z" fill="#2c2e2f"/>
<path d="M2 71.5C2 71.5 64.5 19 70 19C75.5 19 96 37.5 96 37.5C96 37.5 127 2 135.5 2C144 2 185.5 65 185.5 65" stroke="#2c2e2f" stroke-width="4"/>
</svg>
