<svg width="487" height="487" viewBox="0 0 487 487" fill="none" xmlns="http://www.w3.org/2000/svg">
<path d="M424.025 194.923L472.347 243.245L424.025 291.567V305.709L486.489 243.245L424.025 180.78V194.923Z" fill="black"/>
<path d="M300.347 71.2447H314.489L243.245 0L172 71.2447H186.142L243.245 14.1421L300.347 71.2447Z" fill="black"/>
<path d="M63.2447 194.142V180L0 243.245L63.2447 306.489V292.347L14.1421 243.245L63.2447 194.142Z" fill="black"/>
<path d="M186.142 415.245H172L243.245 486.489L314.489 415.245H300.347L243.245 472.347L186.142 415.245Z" fill="black"/>
<path d="M204.097 262.589C201.84 262.963 199.333 263.15 196.575 263.15H159.53V309H149V178H195.259C207.168 178 216.006 181.618 221.773 188.854C227.665 196.09 230.611 205.822 230.611 218.049C230.611 227.406 229.545 235.702 227.414 242.939C225.408 250.175 220.958 255.664 214.063 259.407L230.799 309H220.08L204.097 262.589ZM196.763 252.857C203.783 252.857 208.986 250.986 212.371 247.243C215.881 243.5 218.012 239.258 218.764 234.517C219.642 229.776 220.08 224.474 220.08 218.61C220.08 208.38 217.949 200.707 213.687 195.591C209.424 190.476 203.532 187.919 196.011 187.919H159.53V252.857H196.763Z" fill="black"/>
<path d="M325.47 242.003H265.672V309H255.141V178H265.672V231.71H325.47V178H336V309H325.47V242.003Z" fill="black"/>
</svg>
